<svg xmlns="http://www.w3.org/2000/svg" viewBox="0 0 30 30">
  <style>
    circle, path { fill: black; }
    @media (prefers-color-scheme: dark) {
      circle, path { fill: white; }
    }
  </style>

  <circle r="2" cy="5" cx="15" />
  <circle r="2" cy="24" cx="4" />
  <circle r="2" cy="24" cx="26" />
  <path d="m16.836,4.21l-1.836,-0.21l-1.836,0.21l-10.864,18.738l1.844,3.052l10.856,0l10.856,0l1.844,-3.052l-10.864,-18.738zm-0.624,7.15l-0.2,6.473l-2.024,0l-0.2,-6.473l2.424,0zm-1.209,10.829c-0.828,0 -1.323,-0.441 -1.323,-1.182c0,-0.755 0.494,-1.196 1.323,-1.196c0.822,0 1.316,0.441 1.316,1.196c0,0.741 -0.494,1.182 -1.316,1.182z" />
</svg>
